<svg width="1200" height="360" xmlns="http://www.w3.org/2000/svg">
 <!-- Created with Method Draw - http://github.com/duopixel/Method-Draw/ -->

 <g>
  <title>background</title>
  <rect fill="#e2e2e2" id="canvas_background" height="362" width="1202" y="-1" x="-1"/>
  <g display="none" overflow="visible" y="0" x="0" height="100%" width="100%" id="canvasGrid">
   <rect fill="url(#gridpattern)" stroke-width="0" y="0" x="0" height="100%" width="100%"/>
  </g>
 </g>
 <g>
  <title>Layer 1</title>
  <text stroke="#000" transform="matrix(1.5220099703675902,0,0,1.3932237158496659,-354.0886608191245,-71.09205812619535) " font-style="italic" font-weight="normal" xml:space="preserve" text-anchor="start" font-family="'Courier New', Courier, monospace" font-size="82" id="svg_1" y="204.842237" x="307.719909" fill="#000000">JOGO DA VELHA</text>
  <path stroke="#000" id="svg_2" d="m570.499127,32.872074l13.820573,-11.872068l14.680603,12.362292l14.680607,-12.362292l13.81997,11.637554l-14.680607,12.36239l14.680607,12.36239l-13.81997,11.637662l-14.680607,-12.362393l-14.680603,12.362393l-13.819843,-11.637662l14.680484,-12.36239l-14.680484,-12.245133z" fill="#000000"/>
  <path stroke="#000" id="svg_3" d="m570.250018,315.000007l0,0c0,-13.254828 13.2076,-23.999991 29.499996,-23.999991l0,0c7.823881,0 15.327325,2.528562 20.859642,7.029433c5.532325,4.500873 8.640353,10.605363 8.640353,16.970558l0,0c0,13.254826 -13.2076,23.999991 -29.499995,23.999991l0,0c-16.292394,0 -29.499996,-10.745165 -29.499996,-23.999991zm14.749998,0l0,0c0,6.627412 6.603804,11.999995 14.749998,11.999995c8.1462,0 14.749998,-5.372583 14.749998,-11.999995c0,-6.627413 -6.603802,-11.999996 -14.749998,-11.999996l0,0c-8.146195,0 -14.749998,5.372585 -14.749998,11.999996z" fill="#000000"/>
  <rect stroke="#000" id="svg_4" height="7" width="998.999952" y="249.965904" x="102.00002" fill="#000000"/>
  <rect stroke="#000" id="svg_8" height="7" width="999.000024" y="102.965904" x="101.000013" fill="#000000"/>
  <path stroke="#000" id="svg_9" d="m842.49912,302.119405l13.820573,-12.119404l14.680604,12.619841l14.680607,-12.619841l13.81997,11.880004l-14.680608,12.619941l14.680608,12.619942l-13.81997,11.880114l-14.680607,-12.619944l-14.680604,12.619944l-13.819843,-11.880114l14.680484,-12.619942l-14.680484,-12.500241z" fill="#000000"/>
  <path stroke="#000" id="svg_10" d="m303.250017,315.500006l0,0c0,-13.530972 12.536028,-24.499994 27.999998,-24.499994l0,0c7.426057,0 14.54797,2.581241 19.798984,7.17588c5.25102,4.594642 8.201013,10.826309 8.201013,17.324114l0,0c0,13.53097 -12.536028,24.499994 -27.999997,24.499994l0,0c-15.463968,0 -27.999998,-10.969024 -27.999998,-24.499994zm13.999999,0l0,0c0,6.765484 6.268017,12.249997 13.999999,12.249997c7.731987,0 13.999999,-5.484513 13.999999,-12.249997c0,-6.765484 -6.268016,-12.249997 -13.999999,-12.249997l0,0c-7.731982,0 -13.999999,5.484514 -13.999999,12.249997z" fill="#000000"/>
  <path stroke="#000" id="svg_11" d="m303.250013,45.000007l0,0c0,-13.254828 12.759886,-23.999992 28.499999,-23.999992l0,0c7.558666,0 14.807756,2.528562 20.152538,7.029433c5.344789,4.500873 8.347461,10.605363 8.347461,16.970559l0,0c0,13.254826 -12.759886,23.999992 -28.499999,23.999992l0,0c-15.740112,0 -28.499999,-10.745165 -28.499999,-23.999992zm14.249999,0l0,0c0,6.627412 6.379947,11.999996 14.25,11.999996c7.870058,0 14.249999,-5.372583 14.249999,-11.999996c0,-6.627413 -6.379945,-11.999996 -14.249999,-11.999996l0,0c-7.870053,0 -14.25,5.372585 -14.25,11.999996z" fill="#000000"/>
  <path stroke="#000" id="svg_12" d="m842.499121,35.119408l13.820572,-12.119403l14.680603,12.619839l14.680607,-12.619839l13.81997,11.880002l-14.680607,12.619939l14.680607,12.61994l-13.81997,11.880112l-14.680607,-12.619942l-14.680603,12.619942l-13.819842,-11.880112l14.680484,-12.61994l-14.680484,-12.500239z" fill="#000000"/>
 </g>
</svg>